<mxfile host="app.diagrams.net" modified="2024-07-12T10:17:04.665Z" agent="Mozilla/5.0 (Windows NT 10.0; Win64; x64) AppleWebKit/537.36 (KHTML, like Gecko) Chrome/126.0.0.0 Safari/537.36" etag="w0Cwb2RG-bU_SfxLw1BK" version="24.6.5" type="device">
  <diagram name="Pagina-1" id="9yz2OKC9Fu_6bzMXBtnQ">
    <mxGraphModel dx="683" dy="355" grid="1" gridSize="10" guides="1" tooltips="1" connect="1" arrows="1" fold="1" page="1" pageScale="1" pageWidth="827" pageHeight="1169" math="0" shadow="0">
      <root>
        <mxCell id="0" />
        <mxCell id="1" parent="0" />
        <mxCell id="pnzhufoTBbJcKQfdmMHA-10" value="&lt;span style=&quot;font-weight: normal;&quot;&gt;&amp;lt;&amp;lt;interface&amp;gt;&amp;gt;&lt;/span&gt;&lt;div&gt;SizeSetter&lt;/div&gt;" style="swimlane;fontStyle=1;align=center;verticalAlign=top;childLayout=stackLayout;horizontal=1;startSize=40;horizontalStack=0;resizeParent=1;resizeParentMax=0;resizeLast=0;collapsible=1;marginBottom=0;whiteSpace=wrap;html=1;" vertex="1" parent="1">
          <mxGeometry x="135" y="430" width="210" height="148" as="geometry">
            <mxRectangle x="130" y="430" width="140" height="40" as="alternateBounds" />
          </mxGeometry>
        </mxCell>
        <mxCell id="pnzhufoTBbJcKQfdmMHA-40" value="&amp;lt;&amp;lt;Property&amp;gt;&amp;gt; +: string&lt;div&gt;&lt;br&gt;&lt;/div&gt;" style="text;strokeColor=none;fillColor=none;align=left;verticalAlign=top;spacingLeft=4;spacingRight=4;overflow=hidden;rotatable=0;points=[[0,0.5],[1,0.5]];portConstraint=eastwest;whiteSpace=wrap;html=1;" vertex="1" parent="pnzhufoTBbJcKQfdmMHA-10">
          <mxGeometry y="40" width="210" height="26" as="geometry" />
        </mxCell>
        <mxCell id="pnzhufoTBbJcKQfdmMHA-41" value="&amp;lt;&amp;lt;Property&amp;gt;&amp;gt; +hexCode: string&lt;div&gt;&lt;br&gt;&lt;/div&gt;" style="text;strokeColor=none;fillColor=none;align=left;verticalAlign=top;spacingLeft=4;spacingRight=4;overflow=hidden;rotatable=0;points=[[0,0.5],[1,0.5]];portConstraint=eastwest;whiteSpace=wrap;html=1;" vertex="1" parent="pnzhufoTBbJcKQfdmMHA-10">
          <mxGeometry y="66" width="210" height="26" as="geometry" />
        </mxCell>
        <mxCell id="pnzhufoTBbJcKQfdmMHA-13" value="+ setSize(size: Size): void&lt;div&gt;+ getSize(): Size&lt;/div&gt;" style="text;strokeColor=none;fillColor=none;align=left;verticalAlign=top;spacingLeft=4;spacingRight=4;overflow=hidden;rotatable=0;points=[[0,0.5],[1,0.5]];portConstraint=eastwest;whiteSpace=wrap;html=1;" vertex="1" parent="pnzhufoTBbJcKQfdmMHA-10">
          <mxGeometry y="92" width="210" height="56" as="geometry" />
        </mxCell>
        <mxCell id="pnzhufoTBbJcKQfdmMHA-15" value="&lt;span style=&quot;font-weight: normal;&quot;&gt;&amp;lt;&amp;lt;interface&amp;gt;&amp;gt;&lt;/span&gt;&lt;div&gt;MateriaCompose&lt;/div&gt;" style="swimlane;fontStyle=1;align=center;verticalAlign=top;childLayout=stackLayout;horizontal=1;startSize=40;horizontalStack=0;resizeParent=1;resizeParentMax=0;resizeLast=0;collapsible=1;marginBottom=0;whiteSpace=wrap;html=1;" vertex="1" parent="1">
          <mxGeometry x="130" y="610" width="210" height="130" as="geometry" />
        </mxCell>
        <mxCell id="pnzhufoTBbJcKQfdmMHA-16" value="&amp;lt;&amp;lt;Property&amp;gt;&amp;gt;" style="text;strokeColor=none;fillColor=none;align=left;verticalAlign=top;spacingLeft=4;spacingRight=4;overflow=hidden;rotatable=0;points=[[0,0.5],[1,0.5]];portConstraint=eastwest;whiteSpace=wrap;html=1;" vertex="1" parent="pnzhufoTBbJcKQfdmMHA-15">
          <mxGeometry y="40" width="210" height="26" as="geometry" />
        </mxCell>
        <mxCell id="pnzhufoTBbJcKQfdmMHA-17" value="" style="line;strokeWidth=1;fillColor=none;align=left;verticalAlign=middle;spacingTop=-1;spacingLeft=3;spacingRight=3;rotatable=0;labelPosition=right;points=[];portConstraint=eastwest;strokeColor=inherit;" vertex="1" parent="pnzhufoTBbJcKQfdmMHA-15">
          <mxGeometry y="66" width="210" height="8" as="geometry" />
        </mxCell>
        <mxCell id="pnzhufoTBbJcKQfdmMHA-18" value="+ setMaterial(material: Material): void&lt;div&gt;+ getMaterial(): Material&lt;/div&gt;" style="text;strokeColor=none;fillColor=none;align=left;verticalAlign=top;spacingLeft=4;spacingRight=4;overflow=hidden;rotatable=0;points=[[0,0.5],[1,0.5]];portConstraint=eastwest;whiteSpace=wrap;html=1;" vertex="1" parent="pnzhufoTBbJcKQfdmMHA-15">
          <mxGeometry y="74" width="210" height="56" as="geometry" />
        </mxCell>
        <mxCell id="pnzhufoTBbJcKQfdmMHA-19" value="&lt;span style=&quot;font-weight: normal;&quot;&gt;&amp;lt;&amp;lt;interface&amp;gt;&amp;gt;&lt;/span&gt;&lt;div&gt;SeasonSetter&lt;/div&gt;" style="swimlane;fontStyle=1;align=center;verticalAlign=top;childLayout=stackLayout;horizontal=1;startSize=40;horizontalStack=0;resizeParent=1;resizeParentMax=0;resizeLast=0;collapsible=1;marginBottom=0;whiteSpace=wrap;html=1;" vertex="1" parent="1">
          <mxGeometry x="380" y="230" width="210" height="130" as="geometry" />
        </mxCell>
        <mxCell id="pnzhufoTBbJcKQfdmMHA-20" value="&amp;lt;&amp;lt;Property&amp;gt;&amp;gt;" style="text;strokeColor=none;fillColor=none;align=left;verticalAlign=top;spacingLeft=4;spacingRight=4;overflow=hidden;rotatable=0;points=[[0,0.5],[1,0.5]];portConstraint=eastwest;whiteSpace=wrap;html=1;" vertex="1" parent="pnzhufoTBbJcKQfdmMHA-19">
          <mxGeometry y="40" width="210" height="26" as="geometry" />
        </mxCell>
        <mxCell id="pnzhufoTBbJcKQfdmMHA-21" value="" style="line;strokeWidth=1;fillColor=none;align=left;verticalAlign=middle;spacingTop=-1;spacingLeft=3;spacingRight=3;rotatable=0;labelPosition=right;points=[];portConstraint=eastwest;strokeColor=inherit;" vertex="1" parent="pnzhufoTBbJcKQfdmMHA-19">
          <mxGeometry y="66" width="210" height="8" as="geometry" />
        </mxCell>
        <mxCell id="pnzhufoTBbJcKQfdmMHA-22" value="+ setSeason(): void&lt;div&gt;+ getAllSeason(): Material&lt;/div&gt;" style="text;strokeColor=none;fillColor=none;align=left;verticalAlign=top;spacingLeft=4;spacingRight=4;overflow=hidden;rotatable=0;points=[[0,0.5],[1,0.5]];portConstraint=eastwest;whiteSpace=wrap;html=1;" vertex="1" parent="pnzhufoTBbJcKQfdmMHA-19">
          <mxGeometry y="74" width="210" height="56" as="geometry" />
        </mxCell>
        <mxCell id="pnzhufoTBbJcKQfdmMHA-24" value="&lt;span style=&quot;font-weight: normal;&quot;&gt;&amp;lt;&amp;lt;interface&amp;gt;&amp;gt;&lt;/span&gt;&lt;div&gt;EventChooser&lt;/div&gt;" style="swimlane;fontStyle=1;align=center;verticalAlign=top;childLayout=stackLayout;horizontal=1;startSize=40;horizontalStack=0;resizeParent=1;resizeParentMax=0;resizeLast=0;collapsible=1;marginBottom=0;whiteSpace=wrap;html=1;" vertex="1" parent="1">
          <mxGeometry x="380" y="430" width="210" height="130" as="geometry" />
        </mxCell>
        <mxCell id="pnzhufoTBbJcKQfdmMHA-25" value="&amp;lt;&amp;lt;Property&amp;gt;&amp;gt;" style="text;strokeColor=none;fillColor=none;align=left;verticalAlign=top;spacingLeft=4;spacingRight=4;overflow=hidden;rotatable=0;points=[[0,0.5],[1,0.5]];portConstraint=eastwest;whiteSpace=wrap;html=1;" vertex="1" parent="pnzhufoTBbJcKQfdmMHA-24">
          <mxGeometry y="40" width="210" height="26" as="geometry" />
        </mxCell>
        <mxCell id="pnzhufoTBbJcKQfdmMHA-26" value="" style="line;strokeWidth=1;fillColor=none;align=left;verticalAlign=middle;spacingTop=-1;spacingLeft=3;spacingRight=3;rotatable=0;labelPosition=right;points=[];portConstraint=eastwest;strokeColor=inherit;" vertex="1" parent="pnzhufoTBbJcKQfdmMHA-24">
          <mxGeometry y="66" width="210" height="8" as="geometry" />
        </mxCell>
        <mxCell id="pnzhufoTBbJcKQfdmMHA-27" value="+ setEvent(): void&lt;div&gt;+ getallEvent(): Event&lt;/div&gt;" style="text;strokeColor=none;fillColor=none;align=left;verticalAlign=top;spacingLeft=4;spacingRight=4;overflow=hidden;rotatable=0;points=[[0,0.5],[1,0.5]];portConstraint=eastwest;whiteSpace=wrap;html=1;" vertex="1" parent="pnzhufoTBbJcKQfdmMHA-24">
          <mxGeometry y="74" width="210" height="56" as="geometry" />
        </mxCell>
        <mxCell id="pnzhufoTBbJcKQfdmMHA-28" value="&lt;span style=&quot;font-weight: normal;&quot;&gt;&amp;lt;&amp;lt;interface&amp;gt;&amp;gt;&lt;/span&gt;&lt;div&gt;TargetSetter&lt;/div&gt;" style="swimlane;fontStyle=1;align=center;verticalAlign=top;childLayout=stackLayout;horizontal=1;startSize=40;horizontalStack=0;resizeParent=1;resizeParentMax=0;resizeLast=0;collapsible=1;marginBottom=0;whiteSpace=wrap;html=1;" vertex="1" parent="1">
          <mxGeometry x="380" y="610" width="210" height="130" as="geometry" />
        </mxCell>
        <mxCell id="pnzhufoTBbJcKQfdmMHA-29" value="&amp;lt;&amp;lt;Property&amp;gt;&amp;gt;" style="text;strokeColor=none;fillColor=none;align=left;verticalAlign=top;spacingLeft=4;spacingRight=4;overflow=hidden;rotatable=0;points=[[0,0.5],[1,0.5]];portConstraint=eastwest;whiteSpace=wrap;html=1;" vertex="1" parent="pnzhufoTBbJcKQfdmMHA-28">
          <mxGeometry y="40" width="210" height="26" as="geometry" />
        </mxCell>
        <mxCell id="pnzhufoTBbJcKQfdmMHA-30" value="" style="line;strokeWidth=1;fillColor=none;align=left;verticalAlign=middle;spacingTop=-1;spacingLeft=3;spacingRight=3;rotatable=0;labelPosition=right;points=[];portConstraint=eastwest;strokeColor=inherit;" vertex="1" parent="pnzhufoTBbJcKQfdmMHA-28">
          <mxGeometry y="66" width="210" height="8" as="geometry" />
        </mxCell>
        <mxCell id="pnzhufoTBbJcKQfdmMHA-31" value="+ setTarget(target: Target): void&lt;div&gt;+ getAllTarget(): Size&lt;/div&gt;" style="text;strokeColor=none;fillColor=none;align=left;verticalAlign=top;spacingLeft=4;spacingRight=4;overflow=hidden;rotatable=0;points=[[0,0.5],[1,0.5]];portConstraint=eastwest;whiteSpace=wrap;html=1;" vertex="1" parent="pnzhufoTBbJcKQfdmMHA-28">
          <mxGeometry y="74" width="210" height="56" as="geometry" />
        </mxCell>
        <mxCell id="pnzhufoTBbJcKQfdmMHA-33" value="&amp;lt;&amp;lt;Interface&amp;gt;&amp;gt;&lt;div&gt;&lt;b&gt;ColorSettable&lt;/b&gt;&lt;/div&gt;" style="swimlane;fontStyle=0;childLayout=stackLayout;horizontal=1;startSize=44;fillColor=none;horizontalStack=0;resizeParent=1;resizeParentMax=0;resizeLast=0;collapsible=1;marginBottom=0;whiteSpace=wrap;html=1;" vertex="1" parent="1">
          <mxGeometry x="140" y="226" width="200" height="156" as="geometry">
            <mxRectangle x="140" y="230" width="100" height="30" as="alternateBounds" />
          </mxGeometry>
        </mxCell>
        <mxCell id="pnzhufoTBbJcKQfdmMHA-34" value="&amp;lt;&amp;lt;Property&amp;gt;&amp;gt; +hexCode: string&lt;div&gt;&lt;br&gt;&lt;/div&gt;" style="text;strokeColor=none;fillColor=none;align=left;verticalAlign=top;spacingLeft=4;spacingRight=4;overflow=hidden;rotatable=0;points=[[0,0.5],[1,0.5]];portConstraint=eastwest;whiteSpace=wrap;html=1;" vertex="1" parent="pnzhufoTBbJcKQfdmMHA-33">
          <mxGeometry y="44" width="200" height="26" as="geometry" />
        </mxCell>
        <mxCell id="pnzhufoTBbJcKQfdmMHA-38" value="&amp;lt;&amp;lt;Property&amp;gt;&amp;gt; +colorName: string&lt;div&gt;&lt;br&gt;&lt;/div&gt;" style="text;strokeColor=none;fillColor=none;align=left;verticalAlign=top;spacingLeft=4;spacingRight=4;overflow=hidden;rotatable=0;points=[[0,0.5],[1,0.5]];portConstraint=eastwest;whiteSpace=wrap;html=1;" vertex="1" parent="pnzhufoTBbJcKQfdmMHA-33">
          <mxGeometry y="70" width="200" height="26" as="geometry" />
        </mxCell>
        <mxCell id="pnzhufoTBbJcKQfdmMHA-39" value="" style="line;strokeWidth=1;fillColor=none;align=left;verticalAlign=middle;spacingTop=-1;spacingLeft=3;spacingRight=3;rotatable=0;labelPosition=right;points=[];portConstraint=eastwest;strokeColor=inherit;" vertex="1" parent="pnzhufoTBbJcKQfdmMHA-33">
          <mxGeometry y="96" width="200" height="8" as="geometry" />
        </mxCell>
        <mxCell id="pnzhufoTBbJcKQfdmMHA-35" value="+ setColor(color: Color): void" style="text;strokeColor=none;fillColor=none;align=left;verticalAlign=top;spacingLeft=4;spacingRight=4;overflow=hidden;rotatable=0;points=[[0,0.5],[1,0.5]];portConstraint=eastwest;whiteSpace=wrap;html=1;" vertex="1" parent="pnzhufoTBbJcKQfdmMHA-33">
          <mxGeometry y="104" width="200" height="26" as="geometry" />
        </mxCell>
        <mxCell id="pnzhufoTBbJcKQfdmMHA-36" value="+ getColor(): Color" style="text;strokeColor=none;fillColor=none;align=left;verticalAlign=top;spacingLeft=4;spacingRight=4;overflow=hidden;rotatable=0;points=[[0,0.5],[1,0.5]];portConstraint=eastwest;whiteSpace=wrap;html=1;" vertex="1" parent="pnzhufoTBbJcKQfdmMHA-33">
          <mxGeometry y="130" width="200" height="26" as="geometry" />
        </mxCell>
      </root>
    </mxGraphModel>
  </diagram>
</mxfile>
